PathFileType	4	(X/Y/Z)	C:/Users/beibeiliu/ov580/test_trc/User3\sequence.15_training_dense_right.trc
DataRate	CameraRate	NumFrames	NumMarkers	Units	OrigDataRate	OrigDataStartFrame	OrigNumFrames
120	120	14	19	mm	120	59	234
Frame#	Time	ThumbCMC			ThumbMCP			ThumbIP			ThumbTip			IndexMCP			IndexPIP			IndexTip			MiddleMCP			MiddlePIP			MiddleTip			RingMCP			RingPIP			RingTip			PinkyMCP			PinkyPIP			PinkyTip			BackHand1			BackHand2			BackHand3	
		X0	Y0	Z0	X1	Y1	Z1	X2	Y2	Z2	X3	Y3	Z3	X4	Y4	Z4	X5	Y5	Z5	X6	Y6	Z6	X7	Y7	Z7	X8	Y8	Z8	X9	Y9	Z9	X10	Y10	Z10	X11	Y11	Z11	X12	Y12	Z12	X13	Y13	Z13	X14	Y14	Z14	X15	Y15	Z15	X16	Y16	Z16	X17	Y17	Z17	X18	Y18	Z18	
58	0.483333	143.609	-35.6811	8.66892	122.062	-48.7538	-11.4834	109.033	-62.3682	-34.4245	112.68	-83.597	-51.0306	158.225	-56.2149	-60.2325	136.752	-79.1106	-73.7627	122.511	-100.498	-59.3521	185.548	-60.2391	-62.6166	179.384	-77.6816	-91.5645	161.433	-98.341	-112.193	199.998	-68.9425	-50.7601	205.307	-84.3656	-74.8921	200.775	-97.7572	-95.9676	213.921	-86.56	-28.684	219.821	-99.4067	-46.4181	225.725	-114.426	-64.4382	204.174	-50.8199	-1.19457	205.934	-41.84	27.5993	180.089	-26.0235	3.52904	
59	0.491667	138.006	-36.645	13.4425	113.533	-50.1569	-7.17145	108.151	-69.8676	-29.5588	105.665	-88.0178	-42.4399	146.672	-57.5153	-56.8841	132.032	-83.2889	-67.3022	119.46	-107.862	-52.1798	176.116	-63.7706	-63.3551	168.928	-80.0449	-87.472	155.547	-102.124	-104.102	195.779	-71.3371	-48.6159	198.339	-84.5483	-72.0802	194.93	-102.241	-91.5177	208.262	-84.8	-24.0482	215.535	-98.9061	-40.7016	217.901	-112.617	-58.6821	196.925	-48.906	-5.12664	200.637	-37.7582	27.1106	174.152	-24.5984	5.11277	
60	0.5	129.937	-33.0594	18.8987	112.949	-51.832	-1.38667	99.3009	-70.0014	-21.6982	97.1524	-91.6221	-36.4772	141.372	-62.6274	-54.6166	121.203	-88.4772	-60.2007	107.943	-110.041	-43.3857	167.295	-62.8987	-56.9921	157.314	-80.3951	-80.7271	146.018	-112.058	-98.6524	189.179	-73.9223	-48.0145	189.007	-87.1548	-67.4896	185.429	-106.938	-88.0428	202.79	-85.5907	-20.3072	205.987	-98.8703	-41.6956	214.254	-115.207	-52.7132	193.81	-46.8764	-1.9439	196.935	-35.2446	26.4947	168.36	-23.7229	2.84484	
61	0.508333	126.766	-32.271	19.3675	102.88	-49.2671	6.01982	90.9326	-70.7319	-14.4865	93.8104	-91.1618	-25.6738	133.12	-60.0202	-46.5769	116.465	-90.6339	-53.1433	101.071	-107.496	-36.6531	161.983	-68.073	-51.0498	147.685	-85.8847	-75.9746	133.188	-112.189	-89.1587	178.202	-73.642	-42.6959	179.153	-87.2693	-62.1893	175.937	-109.321	-80.7662	194.561	-85.3864	-21.2745	200.316	-100.262	-32.3445	204.763	-118.91	-53.0469	187.471	-47.7193	-0.35897	192.602	-33.8349	26.7712	160.486	-20.895	5.61567	
62	0.516667	123.256	-26.2723	22.9962	101.051	-46.1314	10.0791	86.6448	-68.9984	-9.7496	83.9106	-88.9675	-18.6355	128.708	-62.6644	-41.0657	110.622	-87.7807	-46.007	91.5165	-106.869	-26.9286	153.129	-72.2754	-51.6982	138.788	-89.2756	-68.1614	123.257	-119.552	-79.392	173.6	-77.8447	-35.6329	168.107	-93.7593	-60.3316	162.753	-118.258	-76.1757	189.227	-88.284	-12.5434	190.771	-105.081	-29.7189	191.723	-123.358	-45.5863	182.606	-45.3164	3.96079	191.726	-31.6616	29.8085	158.773	-22.2489	6.53793	
63	0.525	121.132	-22.0515	24.2317	98.1128	-41.2082	13.4924	80.2545	-61.2784	-1.08003	74.701	-85.8181	-10.8849	122.368	-63.6015	-36.3108	95.4595	-85.4714	-38.7915	85.1558	-104.078	-15.9204	145.332	-74.1801	-43.4407	130.593	-91.734	-59.0777	110.328	-123.435	-68.642	165.243	-81.3479	-29.9962	159.655	-99.9873	-49.8634	149.63	-121.834	-62.9396	179.969	-91.0564	-7.74245	178.027	-106.012	-21.421	180.758	-126.882	-35.2565	179.779	-47.1464	2.05018	188.269	-30.5605	30.3604	155.213	-19.6608	6.9657	
64	0.533333	124.427	-13.78	30.3401	93.8201	-32.6477	16.1611	75.0277	-50.344	7.97854	68.753	-75.7696	-1.66364	113.252	-57.5747	-32.2882	85.6144	-81.8035	-30.0376	73.7316	-95.158	-6.67297	133.385	-72.7545	-39.3195	118.784	-95.322	-51.4673	93.8301	-117.465	-57.3071	154.156	-83.3141	-26.2066	145.554	-106.375	-45.3917	132.211	-122.554	-54.0329	168.075	-92.7371	-5.0102	166.001	-112.119	-16.8225	165.867	-131.974	-26.406	175.586	-50.7933	4.18428	187.913	-32.4427	28.6296	157.089	-19.003	9.14444	
65	0.541667	124.631	-7.64821	28.8135	96.9308	-23.8722	20.9242	73.4441	-38.8681	11.2952	63.4529	-61.5957	6.99306	108.008	-55.4517	-27.4494	81.3843	-77.7982	-22.5499	65.0741	-84.0856	-1.26677	126.376	-77.7059	-35.2247	107.054	-93.3227	-43.9089	79.8749	-111.375	-46.7952	140.718	-83.9866	-23.7339	128.706	-102.312	-37.701	110.856	-122.383	-46.4172	156.162	-94.8997	-1.5929	150.71	-116.441	-10.5726	144.301	-132.053	-19.1973	171.676	-50.7899	7.82528	184.706	-32.9619	29.5421	158.484	-20.4402	5.57429	
66	0.55	127.396	-0.814857	28.0481	98.1004	-12.4974	23.5377	70.4475	-27.1461	12.6376	59.9612	-48.432	11.2209	101.031	-53.7964	-23.048	73.0604	-64.7509	-20.4021	54.0634	-68.2246	8.29909	118.242	-71.7495	-27.9485	94.9143	-88.9112	-37.5998	64.5914	-107.523	-37.1771	130.324	-85.4866	-19.2298	113.627	-103.049	-30.7524	94.6644	-116.864	-35.9897	145.371	-93.3052	4.33174	136.835	-109.305	-2.45978	126.435	-132.62	-10.1521	166.784	-55.8151	7.10974	182.677	-38.6679	28.3913	158.247	-18.7303	8.40098	
67	0.558333	132.335	6.55244	26.745	100.87	-2.45421	22.5427	74.3898	-16.346	14.3358	57.1795	-31.7906	14.2606	97.5548	-46.3073	-20.407	66.5315	-53.1963	-15.124	50.3302	-53.4143	11.3972	106.086	-66.2754	-26.4537	85.2631	-81.2527	-31.7385	55.295	-94.1686	-30.9367	123.006	-79.1986	-10.9474	102.887	-93.4773	-22.7173	79.3836	-108.033	-26.7175	135.322	-90.6481	10.9481	119.454	-106.712	-0.579057	109.2	-124.011	-4.02207	162.243	-52.5324	10.7121	184.144	-40.6642	29.7693	157.135	-17.1026	4.63216	
68	0.566667	138.096	10.6078	25.7817	107.652	6.52579	22.3437	74.9966	1.40173	14.4187	57.354	-17.0816	14.0358	97.6637	-36.7933	-18.7254	66.4768	-43.6377	-14.6574	47.1365	-34.1178	8.64475	101.87	-63.0966	-23.5935	78.0399	-71.5711	-28.0998	45.7746	-80.189	-28.2768	114.225	-75.066	-8.95184	92.2767	-83.8334	-19.5019	64.6965	-95.4744	-24.8307	124.826	-84.3052	12.3089	110.936	-95.7625	6.09483	91.923	-114.352	-1.59169	158.221	-49.9266	10.8547	179.104	-42.7471	27.5271	159.731	-20.5857	5.46067	
69	0.575	143.12	9.14922	22.0101	113.178	13.4903	19.0658	80.216	8.29883	10.9517	62.5796	-4.13134	14.1863	93.2674	-27.1363	-22.1311	64.0261	-27.5891	-16.1923	46.9001	-17.4625	6.22931	99.5581	-52.6782	-22.7206	72.605	-58.2875	-29.224	40.0454	-66.8306	-26.3348	109.466	-66.2956	-7.25369	86.3287	-72.841	-18.0013	58.2713	-85.2423	-20.4181	116.395	-76.8999	12.0889	103.1	-91.8156	11.1612	83.5325	-104.052	5.85884	153.814	-52.8296	11.0881	179.114	-39.4157	28.0011	162.979	-15.3638	6.4099	
70	0.583333	151.398	12.7775	21.5963	118.185	19.0963	15.7998	86.8398	21.1073	8.59132	65.6033	7.0801	10.7293	94.7951	-22.4038	-22.1414	66.2624	-14.6899	-18.39	49.5785	1.48219	5.61442	99.3751	-48.0874	-21.0192	73.3897	-46.1309	-30.8203	40.6429	-50.197	-29.5546	105.858	-57.2572	-8.07205	83.4796	-64.1559	-19.2544	55.6855	-68.245	-24.8444	111.527	-70.7811	12.9169	92.2618	-83.4408	9.76814	76.2094	-90.8255	4.4478	149.851	-51.2683	12.658	174.183	-43.7649	27.7972	165.504	-19.6404	3.09184	
71	0.591667	156.405	14.1106	18.6137	126.784	28.2181	12.605	94.7372	25.2185	6.83979	69.4437	16.9796	7.80859	100.906	-13.9696	-25.1946	69.8327	-5.97182	-18.6342	56.6061	12.1009	-2.07912	97.3309	-37.5377	-25.7951	73.6717	-36.6984	-33.3422	37.536	-32.3285	-36.372	103.073	-52.2735	-9.64883	80.981	-59.0075	-17.4484	51.6661	-59.1337	-27.8889	108.961	-63.9407	16.9165	90.7292	-72.0975	9.36616	70.799	-80.1962	6.37488	152.342	-50.4454	13.6062	177.506	-43.3384	31.4806	169.253	-18.1284	6.77178	
